<svg xmlns="http://www.w3.org/2000/svg" width="1024" height="1024" viewBox="0 0 100 100" style="display:block"><defs><clipPath id="sqe-r0" clipPathUnits="objectBoundingBox"><path d="M1.00000 0.50000L0.99953 0.65276L0.99814 0.70630L0.99580 0.74568L0.99252 0.77781L0.98829 0.80526L0.98308 0.82930L0.97689 0.85069L0.96969 0.86990L0.96145 0.88725L0.95213 0.90295L0.94168 0.91718L0.93006 0.93006L0.91718 0.94168L0.90295 0.95213L0.88725 0.96145L0.86990 0.96969L0.85069 0.97689L0.82930 0.98308L0.80526 0.98829L0.77781 0.99252L0.74568 0.99580L0.70630 0.99814L0.65276 0.99953L0.50000 1.00000L0.34724 0.99953L0.29370 0.99814L0.25432 0.99580L0.22219 0.99252L0.19474 0.98829L0.17070 0.98308L0.14931 0.97689L0.13010 0.96969L0.11275 0.96145L0.09705 0.95213L0.08282 0.94168L0.06994 0.93006L0.05832 0.91718L0.04787 0.90295L0.03855 0.88725L0.03031 0.86990L0.02311 0.85069L0.01692 0.82930L0.01171 0.80526L0.00748 0.77781L0.00420 0.74568L0.00186 0.70630L0.00047 0.65276L0.00000 0.50000L0.00047 0.34724L0.00186 0.29370L0.00420 0.25432L0.00748 0.22219L0.01171 0.19474L0.01692 0.17070L0.02311 0.14931L0.03031 0.13010L0.03855 0.11275L0.04787 0.09705L0.05832 0.08282L0.06994 0.06994L0.08282 0.05832L0.09705 0.04787L0.11275 0.03855L0.13010 0.03031L0.14931 0.02311L0.17070 0.01692L0.19474 0.01171L0.22219 0.00748L0.25432 0.00420L0.29370 0.00186L0.34724 0.00047L0.50000 0.00000L0.65276 0.00047L0.70630 0.00186L0.74568 0.00420L0.77781 0.00748L0.80526 0.01171L0.82930 0.01692L0.85069 0.02311L0.86990 0.03031L0.88725 0.03855L0.90295 0.04787L0.91718 0.05832L0.93006 0.06994L0.94168 0.08282L0.95213 0.09705L0.96145 0.11275L0.96969 0.13010L0.97689 0.14931L0.98308 0.17070L0.98829 0.19474L0.99252 0.22219L0.99580 0.25432L0.99814 0.29370L0.99953 0.34724L1.00000 0.50000Z"></path></clipPath><radialGradient id="bge-r0" cx="0.5" cy="0.42" r="0.78"><stop offset="0" stop-color="#101a30"></stop><stop offset="1" stop-color="#05070f"></stop></radialGradient><filter id="eg-r0" x="-60%" y="-60%" width="220%" height="220%"><feGaussianBlur stdDeviation="2.1"></feGaussianBlur></filter><filter id="en-r0" x="-80%" y="-80%" width="260%" height="260%"><feGaussianBlur stdDeviation="7"></feGaussianBlur></filter></defs><g clip-path="url(#sqe-r0)"><rect x="0" y="0" width="100" height="100" fill="url(#bge-r0)"></rect><ellipse cx="32" cy="38" rx="24" ry="19.68" fill="#3b8fd6" opacity="0.45" filter="url(#en-r0)"></ellipse><ellipse cx="70" cy="64" rx="22" ry="18.04" fill="#2fb6c8" opacity="0.45" filter="url(#en-r0)"></ellipse><circle cx="24" cy="22" r="1.7" fill="#fff" opacity="0.6"></circle><circle cx="78" cy="28" r="1.3" fill="#fff" opacity="0.9"></circle><circle cx="70" cy="73" r="0.85" fill="#fff" opacity="0.6"></circle><circle cx="30" cy="76" r="1.3" fill="#fff" opacity="0.9"></circle><circle cx="85" cy="50" r="1.7" fill="#fff" opacity="0.6"></circle><circle cx="17" cy="46" r="1.3" fill="#fff" opacity="0.9"></circle><circle cx="50" cy="16" r="0.85" fill="#fff" opacity="0.6"></circle><circle cx="61" cy="85" r="1.3" fill="#fff" opacity="0.9"></circle><circle cx="40" cy="29" r="1.7" fill="#fff" opacity="0.6"></circle><circle cx="83" cy="68" r="1.3" fill="#fff" opacity="0.9"></circle><circle cx="19" cy="65" r="0.85" fill="#fff" opacity="0.6"></circle><circle cx="66" cy="21" r="1.3" fill="#fff" opacity="0.9"></circle><circle cx="34" cy="60" r="1.7" fill="#fff" opacity="0.6"></circle><circle cx="75" cy="42" r="1.3" fill="#fff" opacity="0.9"></circle><g filter="url(#eg-r0)" opacity="0.9"><circle cx="50" cy="49" r="23" fill="none" stroke="#9cc6ff" stroke-width="2"></circle></g><circle cx="50" cy="49" r="23" fill="none" stroke="#9cc6ff" stroke-width="2"></circle><circle cx="50" cy="49" r="21.5" fill="#05050c"></circle><g filter="url(#eg-r0)" opacity="0.7"><path d="M33 49 A17 17 0 0 1 67 49" fill="none" stroke="#9cc6ff" stroke-width="1.3" opacity="0.5"></path></g><path d="M33 49 A17 17 0 0 1 67 49" fill="none" stroke="#9cc6ff" stroke-width="1.3" opacity="0.5"></path><path d="M1.00000 0.50000L0.99953 0.65276L0.99814 0.70630L0.99580 0.74568L0.99252 0.77781L0.98829 0.80526L0.98308 0.82930L0.97689 0.85069L0.96969 0.86990L0.96145 0.88725L0.95213 0.90295L0.94168 0.91718L0.93006 0.93006L0.91718 0.94168L0.90295 0.95213L0.88725 0.96145L0.86990 0.96969L0.85069 0.97689L0.82930 0.98308L0.80526 0.98829L0.77781 0.99252L0.74568 0.99580L0.70630 0.99814L0.65276 0.99953L0.50000 1.00000L0.34724 0.99953L0.29370 0.99814L0.25432 0.99580L0.22219 0.99252L0.19474 0.98829L0.17070 0.98308L0.14931 0.97689L0.13010 0.96969L0.11275 0.96145L0.09705 0.95213L0.08282 0.94168L0.06994 0.93006L0.05832 0.91718L0.04787 0.90295L0.03855 0.88725L0.03031 0.86990L0.02311 0.85069L0.01692 0.82930L0.01171 0.80526L0.00748 0.77781L0.00420 0.74568L0.00186 0.70630L0.00047 0.65276L0.00000 0.50000L0.00047 0.34724L0.00186 0.29370L0.00420 0.25432L0.00748 0.22219L0.01171 0.19474L0.01692 0.17070L0.02311 0.14931L0.03031 0.13010L0.03855 0.11275L0.04787 0.09705L0.05832 0.08282L0.06994 0.06994L0.08282 0.05832L0.09705 0.04787L0.11275 0.03855L0.13010 0.03031L0.14931 0.02311L0.17070 0.01692L0.19474 0.01171L0.22219 0.00748L0.25432 0.00420L0.29370 0.00186L0.34724 0.00047L0.50000 0.00000L0.65276 0.00047L0.70630 0.00186L0.74568 0.00420L0.77781 0.00748L0.80526 0.01171L0.82930 0.01692L0.85069 0.02311L0.86990 0.03031L0.88725 0.03855L0.90295 0.04787L0.91718 0.05832L0.93006 0.06994L0.94168 0.08282L0.95213 0.09705L0.96145 0.11275L0.96969 0.13010L0.97689 0.14931L0.98308 0.17070L0.98829 0.19474L0.99252 0.22219L0.99580 0.25432L0.99814 0.29370L0.99953 0.34724L1.00000 0.50000Z" transform="scale(100)" fill="none" stroke="rgba(255,255,255,.08)" stroke-width="1.1" vector-effect="non-scaling-stroke"></path></g></svg>
